@startuml 

class Alien 
class Cañon {
    +MoverDerecha()
    +MoverIzquierda() 
    +Disparar()
}
class Barrera 
class Proyectil
class Vida
class Juego
class Puntuacion 
class Nivel
class Jugador 
class Colisionable 
class Calamar 
class Pulpo
class Cangrejo



Juego "1" *-- "*" Nivel

Nivel "1" *-- "10..20" Alien 
Nivel "1"  *-- "4"  Barrrera 
Nivel "1"  *-- "1" Cañon 

Jugador "1"  o-- "1" Cañon
Jugador "1" *-- "3" Vida 
Jugador "1" *-- "1" Puntuacion 

Cañon "1" o-- "*" Proyectil
Juego "1" *-- "1" Jugador 
Proyectil o-- Colisionable

Barrera ---|> Colisionable
Alien --|> Colisionable

Pulpo --|> Alien
Calamar  --|> Alien 
Cangrejo --|> Alien 

@enduml 